<?xml version="1.0" standalone="no"?>
<!DOCTYPE svg PUBLIC "-//W3C//DTD SVG 20010904//EN"
 "http://www.w3.org/TR/2001/REC-SVG-20010904/DTD/svg10.dtd">
<svg version="1.0" xmlns="http://www.w3.org/2000/svg"
 width="1500.000000pt" height="69.000000pt" viewBox="0 0 1480.000000 92.000000"
 preserveAspectRatio="xMidYMid meet">
 <defs xmlns="http://www.w3.org/2000/svg"><style>.cls-1{fill:#49bce2;}.cls-2{fill:#ffc10e;}</style></defs>

<g transform="translate(0.000000,115.000000) scale(0.100000,-0.100000)"
fill="#000000" stroke="none">
<path class="cls-1" d="M4585 1070 c-201 -40 -364 -197 -404 -388 -72 -341 172 -632 529
-632 153 0 282 47 369 133 33 32 39 43 29 52 -7 6 -39 35 -70 64 l-57 53 -42
-36 c-66 -56 -138 -79 -235 -74 -189 10 -304 132 -304 323 0 136 59 238 168
292 50 25 68 28 152 28 107 0 157 -17 223 -75 l37 -32 68 63 c37 35 67 65 66
67 -1 3 -18 22 -38 43 -49 48 -137 95 -217 114 -68 16 -207 18 -274 5z"/>
<path class="cls-1" d="M9106 1065 c-138 -35 -281 -146 -341 -265 -71 -140 -71 -330 0 -470
62 -122 205 -231 346 -265 330 -77 648 119 689 425 34 249 -101 470 -340 558
-84 31 -264 40 -354 17z m300 -208 c60 -30 118 -92 147 -156 30 -65 30 -207 0
-272 -28 -63 -87 -125 -147 -157 -45 -24 -62 -27 -146 -27 -80 0 -103 4 -144
24 -106 52 -166 147 -174 273 -10 160 72 288 213 335 65 21 190 12 251 -20z"/>
<path class="cls-1" d="M10326 1065 c-237 -60 -396 -261 -396 -500 0 -219 126 -399 336 -482
62 -24 82 -27 204 -27 162 -1 229 18 337 93 103 73 177 179 202 291 13 58 13
192 0 249 -36 158 -160 294 -326 357 -86 33 -263 42 -357 19z m267 -195 c76
-28 130 -79 168 -156 28 -57 32 -74 32 -147 0 -69 -5 -93 -28 -145 -50 -113
-141 -173 -270 -180 -105 -5 -179 21 -245 88 -132 131 -119 386 25 496 83 63
217 82 318 44z"/>
<path class="cls-2" d="M14248 1065 c-137 -34 -276 -140 -337 -254 -102 -192 -71 -442 74
-593 58 -61 115 -99 200 -134 66 -27 79 -28 210 -29 158 0 229 17 340 78 l60
34 3 206 2 207 -100 0 -100 0 0 -149 0 -149 -47 -19 c-74 -28 -233 -25 -295 6
-61 29 -119 88 -149 149 -20 40 -24 62 -24 147 0 84 4 107 23 146 31 64 85
117 151 148 49 23 69 26 156 26 89 0 105 -3 151 -27 28 -15 64 -38 80 -51 l29
-24 70 63 70 63 -35 36 c-43 44 -102 80 -178 107 -76 27 -271 34 -354 13z"/>
<path class="cls-1" d="M220 563 l0 -503 105 0 105 0 0 295 c0 162 4 295 8 295 5 0 73 -108
153 -240 l144 -239 50 -1 50 0 150 251 150 250 3 -305 2 -306 105 0 105 0 0
500 0 500 -94 0 -94 0 -183 -310 c-101 -170 -186 -310 -189 -310 -3 1 -88 140
-190 310 l-185 309 -40 1 c-22 1 -66 2 -98 3 l-57 2 0 -502z"/>
<path d="M1763 1063 l-163 -3 0 -500 0 -500 385 0 385 0 0 90 0 90 -272 2
-273 3 0 120 0 120 233 3 232 2 0 85 0 85 -235 0 -236 0 3 113 3 112 268 3
267 2 0 85 0 85 -137 0 c-76 0 -174 2 -218 3 -44 2 -153 2 -242 0z"/>
<path d="M5714 1062 l-112 -3 -217 -487 c-119 -268 -219 -493 -222 -499 -4
-10 22 -13 110 -13 l114 0 44 107 44 108 240 0 240 0 44 -108 45 -107 119 0
c65 0 116 3 114 8 -3 4 -100 221 -217 482 -117 261 -217 484 -224 495 -10 18
-20 20 -122 17z m90 -421 c42 -102 74 -186 72 -188 -2 -2 -75 -2 -164 -1
l-161 3 73 175 c40 96 75 184 79 194 5 11 11 16 16 10 5 -5 43 -92 85 -193z"/>
<path class="cls-2" d="M6390 563 l0 -503 365 0 365 0 0 95 0 95 -250 0 -250 0 0 404 0 405
-115 3 -115 3 0 -502z"/>
<path class="cls-2" d="M7670 563 l0 -503 253 0 c385 1 499 19 583 93 131 114 99 335 -59
410 l-37 18 49 48 c36 36 53 62 65 101 30 102 15 163 -58 236 -42 43 -63 56
-121 73 -63 19 -99 21 -373 23 l-302 3 0 -502z m577 314 c45 -24 63 -54 63
-105 0 -35 -6 -49 -28 -72 -42 -41 -93 -51 -249 -48 l-138 3 -3 108 c-2 59 -1
115 2 124 9 23 307 15 353 -10z m15 -398 c64 -17 90 -48 96 -110 9 -113 -54
-141 -304 -137 l-159 3 -3 114 c-1 63 0 121 2 128 7 16 311 18 368 2z"/>
<path class="cls-1" d="M13438 760 l-3 -306 -248 303 -248 303 -95 0 -94 0 0 -500 0 -500
110 0 110 0 0 305 c0 168 3 305 8 305 4 0 119 -137 257 -305 l250 -305 92 0
93 0 0 503 0 502 -115 0 -115 0 -2 -305z"/>
<path class="cls-2" d="M2570 561 l0 -501 218 0 c261 0 379 12 466 44 155 59 274 187 306
331 15 65 14 200 -1 261 -37 153 -157 279 -319 336 -61 22 -82 23 -367 26
l-303 3 0 -500z m569 300 c34 -11 78 -31 97 -46 151 -115 147 -393 -7 -505
-67 -48 -124 -60 -291 -60 l-148 0 0 315 0 315 144 0 c114 0 157 -4 205 -19z"/>
<path  d="M3760 560 l0 -500 110 0 110 0 0 500 0 500 -110 0 -110 0 0 -500z"/>
<path class="cls-2" d="M11210 560 l0 -500 110 0 110 0 0 128 1 127 70 74 c59 64 71 73 83
60 7 -7 82 -98 166 -201 l152 -188 130 0 130 0 -34 43 c-19 23 -119 149 -222
280 l-188 238 119 127 c65 70 155 166 201 214 45 47 82 89 82 92 0 3 -54 6
-119 6 l-119 0 -218 -230 c-120 -126 -222 -230 -226 -230 -4 0 -8 104 -8 230
l0 230 -110 0 -110 0 0 -500z"/>
<path class="cls-2" d="M12270 560 l0 -500 115 0 115 0 0 500 0 500 -115 0 -115 0 0 -500z"/>
</g>
</svg>
